<svg xmlns="http://www.w3.org/2000/svg" viewBox="0 0 666.15 163.25"><defs><style>.cls-1{fill:#1a1a1a;}.cls-2{fill:#1469b9;}</style></defs><title>logo_black</title><g id="Layer_2" data-name="Layer 2"><g id="Layer_1-2" data-name="Layer 1"><path class="cls-1" d="M113.15,53V152.1a7.15,7.15,0,0,1-7.15,7.15h0a7.15,7.15,0,0,1-7.16-7.15l.13-7.53C86,160.1,76.06,163.1,59.4,163.1s-30.74-5.95-42.2-17.84A59.13,59.13,0,0,1,0,102.74a58.22,58.22,0,0,1,17.31-42.3Q34.61,42.8,58.76,42.81q21.29,0,36.43,13.93c3.3,3,3.65.71,3.65-3.78h0A7.15,7.15,0,0,1,106,45.8h0A7.15,7.15,0,0,1,113.15,53Zm-13.46,50.1c0-13,.66-23.89-8-32.8A42.92,42.92,0,0,0,59.72,56.91,42.23,42.23,0,0,0,27.78,70.69a45.85,45.85,0,0,0-13,32.59A45.46,45.46,0,0,0,28,135.86q13.25,13.78,31.73,13.78a43.27,43.27,0,0,0,31.73-13.25C100.28,127.56,99.69,116.45,99.69,103.06Z"/><path class="cls-1" d="M666.15,53V152.1a7.15,7.15,0,0,1-7.15,7.15h0a7.15,7.15,0,0,1-7.16-7.15l.13-7.53c-13,15.53-22.91,18.53-39.57,18.53s-30.74-5.95-42.2-17.84A59.13,59.13,0,0,1,553,102.74a58.22,58.22,0,0,1,17.31-42.3q17.3-17.64,41.45-17.63,21.29,0,36.43,13.93c3.3,3,3.65.71,3.65-3.78h0A7.15,7.15,0,0,1,659,45.8h0A7.15,7.15,0,0,1,666.15,53Zm-13.46,50.1c0-13,.66-23.89-8-32.8a42.92,42.92,0,0,0-31.94-13.35,42.23,42.23,0,0,0-31.94,13.78,45.85,45.85,0,0,0-13,32.59A45.46,45.46,0,0,0,581,135.86q13.25,13.78,31.73,13.78a43.27,43.27,0,0,0,31.73-13.25C653.28,127.56,652.69,116.45,652.69,103.06Z"/><path class="cls-1" d="M226.12,160.25h0a7.37,7.37,0,0,1-7.37-7.37V141.43a.5.5,0,0,0-.9-.3q-17.26,22.11-41.62,22.12a40.23,40.23,0,0,1-23.08-6.95,37.7,37.7,0,0,1-14.53-18.16q-4.27-11.22-4.27-33V50.06a7.26,7.26,0,0,1,7.26-7.26h0a7.26,7.26,0,0,1,7.27,7.26v50.8q0,19.86,1.81,26.92a33.15,33.15,0,0,0,5.56,12,23.91,23.91,0,0,0,9.51,7.48,34.31,34.31,0,0,0,14,2.56,35,35,0,0,0,16.13-4.05,39.46,39.46,0,0,0,13.46-11.33,40.87,40.87,0,0,0,7.48-15q1.92-7.68,1.93-31V50.06A7.26,7.26,0,0,1,226,42.8h.21a7.26,7.26,0,0,1,7.27,7.26V152.88A7.37,7.37,0,0,1,226.12,160.25Z"/><path class="cls-2" d="M282.52,69.19v72.12q0,5.76,1.5,6.83c1,.72,8.56,1.07,12.69,1.07h2.11a6.66,6.66,0,0,1,6.65,6.66h0a6.66,6.66,0,0,1-5.84,6.6c-3.29.42-11,.63-13.26.63q-9.62,0-14.1-4.7t-4.49-14.74V58.19H253.89A6.19,6.19,0,0,1,247.7,52h0a6.19,6.19,0,0,1,6.19-6.2h13.89V7.37A7.37,7.37,0,0,1,275.15,0h0a7.37,7.37,0,0,1,7.37,7.37V56.8"/><path class="cls-2" d="M288,58.19h14.52A6.34,6.34,0,0,0,309,52h0a6.34,6.34,0,0,0-6.48-6.2H288"/><path class="cls-2" d="M288,81.19h10.52A6.34,6.34,0,0,0,305,75h0a6.34,6.34,0,0,0-6.48-6.2H288"/><path class="cls-2" d="M288,104.19h6.52A6.34,6.34,0,0,0,301,98h0a6.34,6.34,0,0,0-6.48-6.2H288"/><path class="cls-1" d="M326.55,20.18a11.89,11.89,0,0,1,3.53-8.55A11.47,11.47,0,0,1,338.62,8a11.61,11.61,0,0,1,8.55,3.53,11.64,11.64,0,0,1,3.53,8.54,11.65,11.65,0,0,1-3.53,8.55,11.64,11.64,0,0,1-8.55,3.52,11.43,11.43,0,0,1-8.54-3.63A11.63,11.63,0,0,1,326.55,20.18Zm12.06,25.39h0A7.13,7.13,0,0,1,346,52.44V155.7a7.13,7.13,0,0,1-7.36,6.87h0a7.13,7.13,0,0,1-7.36-6.87V52.44A7.13,7.13,0,0,1,338.61,45.57Z"/><path class="cls-1" d="M382.84,43.44h0c3.71,0,6.72,3.37,6.72,7.52V64c9.34-15.64,18.33-20.47,32.95-20.47,7.77,0,15.33,1.06,21.46,6a37.68,37.68,0,0,1,13,21c4.34-9.15,9.28-16.13,16-21s14.24-6,23-6,18.89,2.4,26,10,11,23,11,45.47v56.69c0,4.15-3,7.52-6.72,7.52h-.39c-3.71,0-6.72-3.37-6.72-7.52V99q0-16.17-1.78-23.81a23.89,23.89,0,0,0-7.7-12.84q-5.93-5.2-15.71-5.2t-18.27,7.3A37.16,37.16,0,0,0,464,83.09q-3.16,11.3-3.16,34.11v38.6c0,4.1-3,7.42-6.62,7.42h0c-3.66,0-6.62-3.32-6.62-7.42V103q0-18.81-1.78-26.9A24.67,24.67,0,0,0,438,62.61c-4.08-3.61-9.08-6.42-15-6.42a27.25,27.25,0,0,0-16.69,5.86C401,66,397,72.32,394,79.11s-4.44,18.23-4.44,34.32v42.3c0,4.15-3,7.52-6.72,7.52h0c-3.71,0-6.72-3.37-6.72-7.52V51C376.12,46.81,379.13,43.44,382.84,43.44Z"/></g></g></svg>