<?xml version="1.0" encoding="UTF-8"?>
<svg xmlns="http://www.w3.org/2000/svg" viewBox="0 0 302.23 50.07">
  <defs>
    <style>.d{fill:#0071bc;}.e{fill:#e6e6e6;}.f{fill:#1469b9;}</style>
  </defs>
  <g id="a"/>
  <g id="b">
    <g id="c">
      <path class="f" d="M13.26,24.74h3.21c1.09,0,1.97-.85,1.97-1.89h0c0-1.04-.88-1.89-1.97-1.89h-3.21"/>
      <path class="f" d="M13.26,31.75h1.99c1.09,0,1.97-.85,1.97-1.89h0c0-1.04-.88-1.89-1.97-1.89h-1.99"/>
      <g>
        <path class="d" d="M131.6,17.98c0,.25,.3,.36,.47,.18,3.59-3.73,7.85-5.6,12.79-5.6s9.5,1.83,13.03,5.49c3.96,4.11,5.7,9.15,5.22,15.13-.29,3.59-1.68,7.05-3.96,9.84-3.84,4.69-8.64,7.04-14.39,7.04-4.87,0-9.1-2.02-12.68-6.07-.17-.19-.48-.08-.48,.17v2.1c0,1.45-1.18,2.63-2.63,2.63h0c-1.45,0-2.63-1.18-2.63-2.63V2.78c0-1.45,1.18-2.63,2.63-2.63h0c1.45,0,2.63,1.18,2.63,2.63v15.2Zm12.93,26.88c3.68,0,6.81-1.37,9.39-4.1,2.58-2.73,3.87-5.92,3.87-9.59s-1.26-6.86-3.77-9.59c-2.51-2.73-5.65-4.09-9.42-4.09s-6.92,1.28-9.46,3.83c-2.54,2.56-3.8,5.77-3.8,9.65s1.28,7.16,3.83,9.85c2.56,2.69,5.68,4.03,9.36,4.03Z"/>
        <path class="d" d="M185.17,12.56c5.11,0,9.46,1.84,13.03,5.53,3.58,3.68,5.36,8.1,5.36,13.26s-1.77,9.57-5.3,13.23c-3.53,3.66-7.9,5.49-13.1,5.49s-9.58-1.83-13.13-5.49c-3.55-3.66-5.33-8.07-5.33-13.23s1.79-9.58,5.36-13.26c3.57-3.68,7.94-5.53,13.1-5.53Zm0,32.37c3.6,0,6.66-1.31,9.2-3.93,2.54-2.62,3.8-5.78,3.8-9.49s-1.29-6.91-3.87-9.62c-2.58-2.71-5.63-4.06-9.17-4.06-3.19,0-5.98,1.1-8.37,3.31-3.16,2.92-4.85,7.19-4.56,11.48,.22,3.26,1.44,6.07,3.67,8.41,2.47,2.6,5.57,3.9,9.29,3.9Z"/>
        <path class="d" d="M241.58,48.9h0c-1.45,0-2.63-1.18-2.63-2.63v-1.88c0-.25-.3-.36-.47-.18-3.75,3.91-8.03,5.86-12.85,5.86s-9.33-1.85-12.9-5.56c-4.01-4.16-5.77-9.22-5.28-15.18,.29-3.55,1.67-6.96,3.92-9.71,3.84-4.7,8.69-7.06,14.56-7.06,4.94,0,9.13,1.92,12.55,5.75,.17,.19,.48,.08,.48-.17v-2.03c0-1.45,1.18-2.63,2.63-2.63h0c1.45,0,2.63,1.18,2.63,2.63v30.16c0,1.45-1.18,2.63-2.63,2.63Zm-15.57-3.83c3.6,0,6.69-1.3,9.29-3.9,2.6-2.6,3.9-5.84,3.9-9.72s-1.28-7.13-3.83-9.75c-2.56-2.62-5.69-3.93-9.39-3.93s-6.84,1.36-9.39,4.06c-2.56,2.71-3.83,5.91-3.83,9.59s1.3,6.88,3.9,9.59c2.6,2.71,5.72,4.06,9.36,4.06Z"/>
        <path class="d" d="M264.69,16.55l-.18,.29c-.56,.91-1.61,1.3-2.67,1.15-.18-.02-.35-.04-.52-.04-1.34,0-2.56,.66-3.64,1.98-1.08,1.32-1.9,3.05-2.44,5.2-.54,2.14-.81,6.01-.81,11.6v9.42c0,1.51-1.22,2.73-2.73,2.73h0c-1.51,0-2.73-1.22-2.73-2.73V16.2c0-1.51,1.22-2.73,2.73-2.73h0c1.51,0,2.73,1.22,2.73,2.73v.24c0,.27,.34,.37,.5,.16,.92-1.25,1.85-2.2,2.78-2.87,1.1-.78,2.36-1.17,3.77-1.17,.51,0,1.04,.06,1.59,.19,1.7,.38,2.52,2.32,1.61,3.8Z"/>
        <path class="d" d="M299.6,48.9h0c-1.45,0-2.63-1.18-2.63-2.63v-1.88c0-.25-.3-.36-.47-.18-3.75,3.91-8.04,5.86-12.88,5.86s-9.35-1.84-12.9-5.52c-3.55-3.68-5.33-8.1-5.33-13.26s1.8-9.57,5.39-13.23c3.6-3.66,7.98-5.49,13.16-5.49s9.13,1.92,12.55,5.75c.17,.19,.48,.08,.48-.17V2.78c0-1.45,1.18-2.63,2.63-2.63h0c1.45,0,2.63,1.18,2.63,2.63V46.27c0,1.45-1.18,2.63-2.63,2.63Zm-15.57-3.83c3.42,0,6.48-1.28,9.17-3.83,2.69-2.56,4.03-5.79,4.03-9.72s-1.25-7.19-3.74-9.82c-2.49-2.62-5.63-3.93-9.42-3.93s-6.96,1.36-9.49,4.06c-2.54,2.71-3.8,5.89-3.8,9.55s1.3,6.86,3.9,9.59c2.6,2.73,5.72,4.09,9.36,4.09Z"/>
      </g>
      <g>
        <path class="e" d="M18.54,18.02h-7.03v24.85c0,.91,.13,1.46,.39,1.66,.26,.2,.91,.29,1.95,.29h3.12v4.62c-2.08,.35-3.67,.52-4.75,.52-2.08,0-3.62-.51-4.62-1.53-1-1.02-1.5-2.63-1.5-4.85V18.02H0v-4.68H6.12V0h5.4V13.34h7.03v4.68Z"/>
        <path class="e" d="M59.6,48.8h-5.27v-5.21c-3.86,4.25-8.31,6.38-13.34,6.38s-9.34-1.85-12.92-5.56c-3.58-3.71-5.37-8.13-5.37-13.27s1.8-9.54,5.4-13.21c3.6-3.66,7.99-5.5,13.18-5.5s9.53,2.1,13.05,6.31v-5.4h5.27V48.8Zm-18.22-3.84c3.6,0,6.7-1.3,9.3-3.9s3.9-5.84,3.9-9.73-1.28-7.13-3.84-9.76c-2.56-2.62-5.69-3.94-9.4-3.94s-6.84,1.36-9.4,4.07c-2.56,2.71-3.84,5.91-3.84,9.6s1.3,6.89,3.9,9.6c2.6,2.71,5.73,4.07,9.37,4.07Z"/>
        <path class="e" d="M87.19,17.5l-3.45,3.58c-2.56-2.38-4.9-3.58-7.03-3.58-1.34,0-2.47,.42-3.38,1.27-.91,.85-1.37,1.89-1.37,3.12s.51,2.32,1.53,3.25c1.02,.93,2.83,2.08,5.43,3.45s4.61,2.87,6.02,4.52c1.41,1.65,2.11,3.67,2.11,6.05,0,3.04-1.05,5.6-3.16,7.68-2.1,2.08-4.7,3.12-7.78,3.12-4.29,0-7.87-1.82-10.74-5.47l3.38-3.77c2.34,2.73,4.73,4.1,7.16,4.1,1.65,0,3.06-.54,4.23-1.63,1.17-1.08,1.76-2.35,1.76-3.81s-.53-2.67-1.59-3.64c-1.06-.98-2.89-2.11-5.47-3.42-2.58-1.3-4.53-2.74-5.86-4.33-1.32-1.58-1.98-3.66-1.98-6.25s.94-4.78,2.83-6.6c1.89-1.82,4.38-2.73,7.48-2.73s6.39,1.69,9.86,5.07Z"/>
        <path class="e" d="M121.8,48.8h-7.74l-16.66-14.96v14.96h-5.4V0h5.4V26.74l15.29-13.34,8-.07-19.52,16.92,20.62,18.54Z"/>
      </g>
    </g>
  </g>
</svg>